<?xml version="1.0" encoding="UTF-8"?>
    <svg id="svg" fill="#000000" stroke="#000000" width="200px" height="200px" version="1.1" viewBox="144 144 512 512" xmlns="http://www.w3.org/2000/svg">
    <g id="IconSvg_bgCarrier" stroke-width="0"></g>
    <g id="IconSvg_tracerCarrier" stroke-linecap="round" stroke-linejoin="round" stroke="#CCCCCC"></g>
     <g id="IconSvg_iconCarrier">
      <path xmlns="http://www.w3.org/2000/svg" d="m403.93 172.97c-4.0352 0.042969-7.8867 1.6953-10.695 4.5938-2.8125 2.8984-4.3438 6.8008-4.2617 10.836v16.059c-0.054687 4.0469 1.5117 7.9453 4.3516 10.828 2.8398 2.8789 6.7188 4.5 10.766 4.5 4.043 0 7.9219-1.6211 10.762-4.5 2.8398-2.8828 4.4062-6.7812 4.3516-10.828v-16.059c0.085938-4.0898-1.4922-8.0391-4.3711-10.949-2.8789-2.9062-6.8125-4.5234-10.902-4.4805zm-3.9336 55.578c-94.539 0-171.45 76.918-171.45 171.45s76.914 171.45 171.45 171.45c23.031 0 45.07-4.4844 65.18-12.754 5.0039-2.0547 8.5352-6.6211 9.2617-11.984 0.72266-5.3594-1.4648-10.703-5.7461-14.012s-10.004-4.082-15.008-2.0273c-16.547 6.8008-34.637 10.547-53.688 10.547-78.203 0-141.23-63.023-141.23-141.22s63.023-141.23 141.23-141.23c78.195 0 141.22 63.027 141.22 141.23 0 33.688-11.719 64.531-31.332 88.797l-13.383-13.383c16.285-20.816 26.137-47.012 26.137-75.414 0-67.562-55.086-122.65-122.64-122.65s-122.65 55.086-122.65 122.65c0 67.559 55.086 122.65 122.65 122.64 8.543 0 16.953-0.84766 25.031-2.5195 3.9688-0.76953 7.4648-3.0977 9.707-6.4609 2.2422-3.3672 3.0391-7.4883 2.2188-11.449-0.82031-3.957-3.1953-7.4219-6.5898-9.6211-3.3945-2.1953-7.5273-2.9414-11.477-2.0664-6.0781 1.2578-12.414 1.8867-18.891 1.8906-51.223 0-92.418-41.195-92.418-92.418 0-51.227 41.195-92.418 92.418-92.418s92.418 41.191 92.418 92.418c0 20.168-6.4219 38.828-17.32 54l-20.469-20.465c6.0039-9.7578 9.4492-21.32 9.4492-33.535 0-35.18-28.898-63.922-64.078-63.922s-64.082 28.738-64.078 63.922c0 28.672 19.102 53.199 45.34 61.242 5.1758 1.5742 10.797 0.26953 14.75-3.4258 3.9492-3.6914 5.6328-9.2148 4.4062-14.484-1.2227-5.2656-5.1641-9.4844-10.34-11.059-13.773-4.2227-23.93-16.914-23.93-32.273 0-18.844 15.008-33.695 33.852-33.695s33.848 14.852 33.848 33.695c0 3.8594-0.56641 7.5977-1.7305 11.02l-17.32-17.32c-3.1875-3.3086-7.7031-4.9883-12.281-4.5625-3.8789 0.33984-7.4766 2.1641-10.043 5.0898-2.5664 2.9297-3.9062 6.7383-3.7344 10.629 0.16797 3.8906 1.8359 7.5625 4.6484 10.258l107.69 107.53v28.34c-0.054688 4.0469 1.5117 7.9453 4.3516 10.824 2.8398 2.8828 6.7188 4.5039 10.766 4.5039 4.043 0 7.9219-1.6211 10.762-4.5039 2.8398-2.8789 4.4062-6.7773 4.3516-10.824v-19.367h13.223l31.016 31.016-13.066 13.07-5.8242-5.668c-2.7695-3.125-6.7109-4.9648-10.887-5.0859-4.1758-0.11719-8.2109 1.4961-11.152 4.4609-2.9453 2.9648-4.5273 7.0156-4.3789 11.188 0.14844 4.1758 2.0156 8.1016 5.1641 10.848l16.371 16.375c2.8594 2.8242 6.7227 4.3945 10.742 4.3672 4.0156-0.03125 7.8555-1.6602 10.672-4.5234l34.32-34.324c2.7969-2.8281 4.3672-6.6484 4.3672-10.625 0-3.9805-1.5703-7.8008-4.3672-10.629l-46.129-46.289c-2.8438-2.832-6.6953-4.418-10.707-4.4062h-12.438c20.84-28.398 33.223-63.539 33.223-101.39-0.003906-94.539-76.918-171.45-171.45-171.45zm-211.6 152.09c-4.0469-0.058593-7.9453 1.5117-10.828 4.3516-2.8789 2.8398-4.5 6.7188-4.5 10.762 0 4.0469 1.6211 7.9258 4.5 10.766 2.8828 2.8398 6.7812 4.4062 10.828 4.3516h16.059c4.0469 0.054688 7.9453-1.5117 10.828-4.3516 2.8789-2.8398 4.5-6.7188 4.5-10.766 0-4.043-1.6211-7.9219-4.5-10.762-2.8828-2.8398-6.7812-4.4102-10.828-4.3516zm407.14 0c-4.0469-0.058593-7.9453 1.5117-10.824 4.3516-2.8828 2.8398-4.5039 6.7188-4.5039 10.762 0 4.0469 1.6211 7.9258 4.5039 10.766 2.8789 2.8398 6.7773 4.4062 10.824 4.3516h16.059c4.0469 0.054688 7.9453-1.5117 10.828-4.3516 2.8789-2.8398 4.5039-6.7188 4.5039-10.766 0-4.043-1.625-7.9219-4.5039-10.762-2.8828-2.8398-6.7812-4.4102-10.828-4.3516zm-191.61 199.48c-4.0078 0.042969-7.8359 1.6758-10.641 4.5391-2.8047 2.8633-4.3555 6.7266-4.3164 10.734v16.215c-0.054687 4.0469 1.5117 7.9453 4.3516 10.828 2.8398 2.8789 6.7188 4.5039 10.766 4.5039 4.043 0 7.9219-1.625 10.762-4.5039 2.8398-2.8828 4.4062-6.7812 4.3516-10.828v-16.215c0.042969-4.0625-1.5547-7.9727-4.4258-10.848-2.875-2.8711-6.7852-4.4688-10.848-4.4258z"/>
      </g>
      </svg>
