<?xml version="1.0" encoding="UTF-8"?>
<svg id="svg" fill="#000000" stroke="#000000" width="200px" height="200px" version="1.1" viewBox="144 144 512 512" xmlns="http://www.w3.org/2000/svg">
<g id="IconSvg_bgCarrier" stroke-width="0"></g>
<g id="IconSvg_tracerCarrier" stroke-linecap="round" stroke-linejoin="round" stroke="#CCCCCC"></g>
<g id="IconSvg_iconCarrier">
<g xmlns="http://www.w3.org/2000/svg">
<path d="m395.41 479.42c-1.9688 0.011719-3.8633-0.76172-5.2617-2.1484l-32.523-32.82c-1.4062-1.3906-2.1953-3.2852-2.1953-5.2617 0-1.9766 0.78906-3.8672 2.1953-5.2617 2.8867-2.8711 7.5547-2.8711 10.445 0l27.34 27.34 20.227-20.301c1.3906-1.4023 3.2852-2.1914 5.2578-2.1914 1.9766 0 3.8711 0.78906 5.2617 2.1914l19.633 19.633 26.82-26.523c1.3906-1.4023 3.2852-2.1914 5.2617-2.1914 1.9766 0 3.8672 0.78906 5.2617 2.1914 2.8711 2.8906 2.8711 7.5586 0 10.449l-32.082 32.082v-0.003906c-1.3906 1.4062-3.2852 2.1914-5.2617 2.1914-1.9766 0-3.8672-0.78516-5.2578-2.1914l-19.633-19.633-20.301 20.301h-0.003906c-1.3789 1.3711-3.2422 2.1406-5.1836 2.1484z"/>
<path d="m637.09 626.57h-69.199c-2.8164 0.019532-5.4023-1.5625-6.668-4.0781l-71.277-142.7c-1.0547-2.0977-1.0547-4.5703 0-6.668l34.082-67.273c1.2695-2.5156 3.8516-4.0938 6.668-4.0742 2.793 0.007812 5.3398 1.582 6.5938 4.0742l106.39 209.97c1.1562 2.293 1.0391 5.0234-0.30078 7.2109-1.3438 2.1875-3.7266 3.5273-6.293 3.5352zm-64.605-14.816h52.531l-94.32-186.12-25.855 50.898z"/>
<path d="m567.89 626.57h-294.88c-2.5273-0.085937-4.8398-1.4531-6.1289-3.6289-1.2891-2.1758-1.3828-4.8594-0.24219-7.1172l147.07-294.8c1.25-2.5156 3.8203-4.1055 6.6289-4.1055 2.8086 0 5.3789 1.5898 6.6328 4.1055l147.51 294.8c1.1562 2.293 1.0391 5.0234-0.30469 7.2109-1.3398 2.1875-3.7227 3.5273-6.2891 3.5352zm-282.88-14.816 270.57-0.003906-135.21-271.02z"/>
<path d="m273.01 626.57h-110.1c-2.5664-0.007812-4.9453-1.3477-6.2891-3.5352s-1.457-4.918-0.30469-7.2109l106.39-209.97c1.2539-2.5156 3.8203-4.1055 6.6289-4.1055 2.8125 0 5.3789 1.5898 6.6328 4.1055l54.68 107.8c1.0547 2.0977 1.0547 4.5703 0 6.668l-50.977 101.95c-1.2031 2.6055-3.8008 4.2773-6.668 4.3008zm-98.02-14.816 93.426-0.003906 47.27-94.688-46.305-91.426z"/>
<path d="m420.45 331.69c-4.0898 0-7.4062-3.3164-7.4062-7.4102v-136.18c0-4.0898 3.3164-7.4102 7.4062-7.4102 4.0938 0 7.4102 3.3203 7.4102 7.4102v136.18c0 1.9648-0.78125 3.8516-2.168 5.2422-1.3906 1.3867-3.2734 2.168-5.2422 2.168z"/>
<path d="m441.34 285.61c-1.3047 0.10938-2.6211 0.10938-3.9258 0-8.9648-1.5547-16.672-8.1484-23.488-20.375-0.625-1.1094-0.95703-2.3594-0.96094-3.6328v-63.863c0.007812-3.3594 2.2812-6.293 5.5312-7.1445 3.25-0.85156 6.668 0.58984 8.3242 3.5117 2.8125 5.8555 7.8516 12.152 13.039 13.266 6.8906 1.1133 16.078-6.9648 24.895-14.816 11.484-10.223 23.414-20.746 37.043-18.449 9.3359 1.1836 16.746 7.8516 23.711 20 0.625 1.1094 0.95703 2.3594 0.96094 3.6328v63.57-0.003907c0.10938 3.4688-2.1992 6.5469-5.5547 7.4102-3.2539 0.83203-6.6602-0.62891-8.3008-3.5547-3.0391-5.4102-7.8516-12.152-13.039-12.965-6.8906-1.1836-16.078 6.9648-24.969 14.816-10.371 9.0391-21.113 18.598-33.266 18.598zm-13.559-26.379c3.0391 5.1133 7.4102 10.594 12.078 11.336 6.8906 1.1836 16.078-6.9648 24.895-14.816 11.484-10.223 23.414-20.746 37.043-18.449 3.4609 0.63672 6.7422 2 9.6328 4v-41.34c-3.0391-5.0391-7.4102-10.594-12.078-11.336-6.8906-1.1836-16.078 6.9648-24.969 14.816-11.484 10.148-23.34 20.746-37.043 18.449-3.4492-0.625-6.7266-1.9648-9.6328-3.9258z"/>
</g>
</g>
</svg>
