<?xml version="1.0" encoding="UTF-8"?>
<svg fill="#000000" stroke="#000000" width="10em" height="10em" version="1.1" viewBox="144 144 512 512" xmlns="http://www.w3.org/2000/svg">
<g id="IconSvg_bgCarrier" stroke-width="0"></g>
<g id="IconSvg_tracerCarrier" stroke-linecap="round" stroke-linejoin="round" stroke="#CCCCCC"></g>
<g id="IconSvg_iconCarrier">
<g xmlns="http://www.w3.org/2000/svg">
<path d="m588.34 537.41-43.344-71.809c0.53516-2.9219 1.0234-5.8477 1.4883-8.7695 1.4258-8.8945 2.7695-17.293 5.8008-24.625 2.9297-7.1719 7.9023-14.02 13.168-21.27 9.0625-12.477 18.438-25.387 18.438-41.73 0-16.281-9.3125-29.078-18.301-41.461-5.3203-7.3047-10.336-14.211-13.328-21.609-3.0156-7.1953-4.3594-15.57-5.7773-24.434-2.4414-15.176-4.9531-30.867-16.406-42.32-11.523-11.684-27.332-14.16-42.629-16.555-8.8711-1.3945-17.246-2.6992-24.418-5.707-7.125-2.9922-13.918-7.9102-21.105-13.121-12.555-9.1016-25.527-18.516-41.973-18.516-16.438 0-29.41 9.4062-41.965 18.516-7.1875 5.2148-13.973 10.145-21.105 13.137-7.1719 3.0078-15.531 4.3203-24.379 5.707-15.242 2.3945-30.992 4.8633-42.629 16.516-11.562 11.562-14.043 27.371-16.445 42.66-1.3789 8.7695-2.6758 17.066-5.5742 24.16-3.0156 7.2656-8.0391 14.121-13.344 21.387-9.0938 12.43-18.5 25.293-18.5 41.652 0 16.43 9.4688 29.387 18.625 41.926 5.2656 7.2031 10.234 14.004 13.195 21.051 2.9141 7.2188 4.2109 15.539 5.5977 24.355 0.33984 2.1641 0.68359 4.3438 1.0547 6.5195l-43.02 74.539c-4.1992 7.418-4.0898 16.293 0.4375 23.926 4.7695 7.5195 12.586 11.422 20.859 10.785l35.297-1.7539 15.895 31.203c3.7617 7.8477 11.523 12.723 19.957 12.723h0.015625c0.33203 0.015625 0.65234 0.023438 0.98438 0.023438 8.4141 0 15.586-4.1875 19.789-11.617l36.945-65.637c11.438 8.1875 23.449 15.879 38.305 15.879 14.562 0 26.402-7.3828 37.645-15.398l37.621 65.172c4.1875 7.4141 11.367 11.602 19.523 11.602 0.30859 0 0.62109 0 0.9375-0.015625 8.6758 0 16.281-4.668 20.402-12.555l15.98-31.379 34.863 1.7383c8.9336 0.68359 16.758-3.4414 21.074-10.754 4.668-7.2812 4.8242-16.238 0.34375-24.141zm-277.35 57.754c-1.3711 2.418-3.3633 3.5977-6.3359 3.5977-2.7695-0.015624-5.2578-1.2109-6.5898-3.9688l-18.293-35.922c-1.4023-2.7617-4.2969-4.4258-7.3984-4.2891l-40.605 2.0234c-2.707 0.16406-4.9375-0.9375-6.4453-3.3047-1.5273-2.582-1.582-5.4062-0.17187-7.8867l35.062-60.758c2.2578 5.3125 5.3281 10.281 9.6758 14.625 11.645 11.645 27.387 14.121 42.629 16.516 8.8477 1.3867 17.207 2.6992 24.379 5.707 4.0156 1.6836 7.918 4.0156 11.848 6.6289zm88.965-57.77c-11.32 0-21.719-7.5352-32.715-15.508-7.5977-5.5117-15.453-11.211-24.262-14.902-8.9336-3.7539-18.633-5.2734-28.023-6.7383-13.328-2.1016-25.922-4.0781-33.945-12.09-7.9414-7.9414-9.9258-20.625-12.02-34.055-1.457-9.3047-2.9609-18.918-6.5977-27.914-3.707-8.8398-9.4609-16.719-15.027-24.348-8.0312-10.98-15.594-21.34-15.594-32.637 0-11.219 7.5117-21.484 15.461-32.355 5.6289-7.6914 11.438-15.633 15.199-24.695 3.6055-8.832 5.1094-18.438 6.5742-27.719 2.1016-13.383 4.0859-26.031 12.012-33.961 8.0234-8.0234 20.609-9.9961 33.945-12.09 9.3828-1.4727 19.09-2.9922 28.023-6.7383 8.8086-3.6914 16.656-9.3828 24.254-14.895 10.996-7.9805 21.395-15.516 32.723-15.516 11.336 0 21.734 7.5352 32.73 15.516 7.5977 5.5039 15.453 11.203 24.254 14.895 8.9336 3.7461 18.656 5.2734 28.07 6.7383 13.352 2.0938 25.969 4.0703 33.891 12.09 7.8867 7.8867 9.9023 20.438 12.027 33.723 1.5039 9.3828 3.0625 19.09 6.7695 27.93 3.6758 9.1016 9.5078 17.121 15.145 24.867 7.8633 10.824 15.297 21.043 15.297 32.203 0 11.234-7.4961 21.547-15.43 32.473-5.582 7.6992-11.352 15.641-14.988 24.535-3.7305 8.9961-5.2891 18.719-6.7852 28.125-2.1328 13.32-4.1406 25.914-12.074 33.852-7.8789 7.9883-20.5 9.9648-33.852 12.051-9.4141 1.4727-19.145 2.9922-28.07 6.7383-8.8086 3.6914-16.664 9.3828-24.262 14.895-11.004 7.9961-21.398 15.531-32.73 15.531zm174.64 15.922c-1.3867 2.3398-3.6992 3.5352-6.6602 3.2734l-40.172-2.0078c-3.1172-0.20312-6.0078 1.5195-7.3984 4.2891l-18.262 35.855c-1.3555 2.5977-3.6367 4.0312-6.7148 4.0391-2.9766 0-5.0391-1.0625-6.4961-3.6602l-38.391-66.512c4.1562-2.8008 8.2891-5.3125 12.531-7.0859 7.1641-3.0078 15.547-4.3125 24.418-5.707 15.297-2.3945 31.102-4.8633 42.586-16.516 3.9453-3.9453 6.7695-8.3984 8.9648-13.152l35.746 59.223c1.0508 1.8633 1.9023 4.7109-0.15234 7.9609z"/>
<path d="m498.07 369.2c0 4.3516 3.5195 7.8711 7.8711 7.8711 4.3516 0 7.8711-3.5195 7.8711-7.8711 0-62.66-51.082-113.65-113.87-113.65-4.3516 0-7.8711 3.5195-7.8711 7.8711 0 4.3516 3.5195 7.8711 7.8711 7.8711 54.105 0 98.125 43.922 98.125 97.906z"/>
</g>
</g>
</svg>

