<?xml version="1.0" encoding="UTF-8"?>
<svg id="svg" fill="#000000" stroke="#000000" width="200px" height="200px" version="1.1" viewBox="144 144 512 512" xmlns="http://www.w3.org/2000/svg">
<g id="IconSvg_bgCarrier" stroke-width="0"></g>
<g id="IconSvg_tracerCarrier" stroke-linecap="round" stroke-linejoin="round" stroke="#CCCCCC"></g>
<g id="IconSvg_iconCarrier">
<g xmlns="http://www.w3.org/2000/svg">
<path d="m298.63 438.7c2.957 1.375 5.457 2.293 7.5625 2.8555 6.0703 1.6211 9.8828-6.5977 4.6836-10.125-4.7734-3.2383-8.168-7.0898-10.5-10.477-3.832-5.5586-3.3555-13.031 1.0039-18.188 8.3555-9.8867 24.254-23.047 32.82-29.883 3.2812-2.6172 6.6953-5.0703 10.234-7.3242 41.133-26.191 61.695-52.527 61.695-52.527 3.8672 4.2539 43.309-1.9336 43.309-1.9336-15.168 23.508-40.668 49.262-34.594 52.422 4.7852 2.4922 7.9805 7.2656 11.215 11.582 5.6328 7.5195 10.621 10.242 10.621 10.242 6.9609 4.2539 5.8008-2.707 5.8008-2.707-8.8945-2.3203-9.668-22.816-9.668-22.816-7.3477-11.215 48.336-46.402 48.336-46.402s9.2812-6.9609 3.8672-16.242c-5.4141-9.2812-52.59-17.402-52.59-17.402 3.4805-9.2812 26.293-23.586 26.293-23.586s12.762 27.84 25.906 27.453c11.176-0.32812 31.562-29.145 37.43-37.785 4.4102-0.35547 7.8789-4.0391 7.8789-8.5391 0-4.7344-3.8398-8.5742-8.5742-8.5742s-8.5742 3.8398-8.5742 8.5742c0 0.91016 0.14453 1.7852 0.40625 2.6094-6.7461 8.5938-20.078 18.035-25.461 21.672-0.93359 0.63281-2.1875-0.074218-2.1367-1.1992 0.97656-21.961-12.57-39.789-12.57-39.789l0.49609-0.36719c3.1602 1.4648 6.6641 2.3008 10.375 2.3008 13.668 0 24.746-11.082 24.746-24.75s-11.078-24.746-24.746-24.746c-13.668 0-24.75 11.078-24.75 24.746 0 0.69922 0.046874 1.3828 0.10547 2.0703-3.7539-0.30469-10.527-0.63281-22.574-0.91016-22.82-0.52344-38.52 6.4219-46.262 10.949-3.4453 2.0117-5.6758 5.582-5.9453 9.5664l-1.9258 28.598-1.1094 2.1055c-2.0781 1.5664-3.4258 4.0469-3.4258 6.8477 0 4.7344 3.8398 8.5742 8.5742 8.5742 4.7344 0 8.5742-3.8398 8.5742-8.5742 0-2.543-1.1133-4.8203-2.8711-6.3906-3.7188-10.359 2.0469-22.035 5.3008-27.406 1.1133-1.8359 3.1992-2.8398 5.3281-2.5625l20.621 2.6602c-22.812 43.309-42.922 55.684-42.922 55.684-9.7969 6.1211-18.406 20.539-24.355 32.789-8.0156 16.504-18.543 31.652-31.434 44.703-18.824 19.055-41.594 40.637-52.242 50.648-3.3633 3.1602-3.3477 8.4883-0.003907 11.668 14.871 14.145 26.051 19.887 26.051 19.887z"/>
<path d="m641.65 345.71c0.22656 0 0.41016-0.18359 0.41016-0.41016v-131.5c0-3.2031-2.5977-5.8008-5.8008-5.8008s-5.8008 2.5977-5.8008 5.8008v12.602l-50.914 15.91c-0.86719 0.26953-0.86719 1.5 0 1.7734l50.914 15.91v74.012c0 0.22656-0.18359 0.41016-0.41016 0.41016h-76.43c-4.9727 0-9.0039 4.0312-9.0039 9.0039v71.434c0 0.22656-0.18359 0.41016-0.41016 0.41016h-193.21c-4.9727 0-9.0039 4.0312-9.0039 9.0039v73.754c0 0.22656-0.18359 0.41016-0.41016 0.41016l-174.65-0.003906c-4.9727 0-9.0039 4.0312-9.0039 9.0039v119.52h12.137v-114.37c0-0.22656 0.18359-0.41016 0.41016-0.41016h173.94c4.9727 0 9.0039-4.0312 9.0039-9.0039v-75.703c0-0.22656 0.18359-0.41016 0.41016-0.41016l192.93 0.15625c4.9844 0.003906 9.0234-4.043 9.0117-9.0312l-0.21875-72.141c0-0.22656 0.18359-0.41016 0.41016-0.41016z"/>
</g>
</g>
</svg>
